<mxfile host="app.diagrams.net" agent="Mozilla/5.0 (Windows NT 10.0; Win64; x64) AppleWebKit/537.36 (KHTML, like Gecko) Chrome/134.0.0.0 Safari/537.36" version="26.1.3">
  <diagram name="Page-1" id="h4hOhmOOPhz14ql4lvMT">
    <mxGraphModel dx="2261" dy="1921" grid="1" gridSize="10" guides="1" tooltips="1" connect="1" arrows="1" fold="1" page="1" pageScale="1" pageWidth="827" pageHeight="1169" math="0" shadow="0">
      <root>
        <mxCell id="0" />
        <mxCell id="1" parent="0" />
        <mxCell id="bTMqGRWjyUOHQe0r8UtV-38" value="&lt;b&gt;IAM&lt;/b&gt;" style="rounded=1;whiteSpace=wrap;html=1;verticalAlign=top;" vertex="1" parent="1">
          <mxGeometry x="-360" y="-190" width="340" height="200" as="geometry" />
        </mxCell>
        <mxCell id="bTMqGRWjyUOHQe0r8UtV-17" value="VMPBULGARIA" style="rounded=1;whiteSpace=wrap;html=1;fontStyle=1;verticalAlign=top;" vertex="1" parent="1">
          <mxGeometry x="480" y="-150" width="700" height="440" as="geometry" />
        </mxCell>
        <mxCell id="bTMqGRWjyUOHQe0r8UtV-9" value="Alteryx" style="rounded=1;whiteSpace=wrap;html=1;verticalAlign=top;fontStyle=1" vertex="1" parent="1">
          <mxGeometry x="250" y="560" width="370" height="360" as="geometry" />
        </mxCell>
        <mxCell id="bTMqGRWjyUOHQe0r8UtV-7" value="&lt;b&gt;Vcarina&lt;/b&gt;" style="rounded=1;whiteSpace=wrap;html=1;verticalAlign=top;" vertex="1" parent="1">
          <mxGeometry x="20" y="50" width="330" height="240" as="geometry" />
        </mxCell>
        <mxCell id="bTMqGRWjyUOHQe0r8UtV-1" value="" style="shape=cylinder3;whiteSpace=wrap;html=1;boundedLbl=1;backgroundOutline=1;size=15;verticalAlign=bottom;" vertex="1" parent="1">
          <mxGeometry x="90" y="100" width="60" height="80" as="geometry" />
        </mxCell>
        <mxCell id="bTMqGRWjyUOHQe0r8UtV-2" value="Comclientes" style="text;html=1;align=center;verticalAlign=middle;whiteSpace=wrap;rounded=0;" vertex="1" parent="1">
          <mxGeometry x="90" y="180" width="60" height="30" as="geometry" />
        </mxCell>
        <mxCell id="bTMqGRWjyUOHQe0r8UtV-24" style="edgeStyle=orthogonalEdgeStyle;rounded=0;orthogonalLoop=1;jettySize=auto;html=1;" edge="1" parent="1" source="bTMqGRWjyUOHQe0r8UtV-4" target="bTMqGRWjyUOHQe0r8UtV-20">
          <mxGeometry relative="1" as="geometry" />
        </mxCell>
        <mxCell id="bTMqGRWjyUOHQe0r8UtV-4" value="AFILDB_CLA00" style="rounded=0;whiteSpace=wrap;html=1;" vertex="1" parent="1">
          <mxGeometry x="170" y="110" width="120" height="30" as="geometry" />
        </mxCell>
        <mxCell id="bTMqGRWjyUOHQe0r8UtV-25" style="edgeStyle=orthogonalEdgeStyle;rounded=0;orthogonalLoop=1;jettySize=auto;html=1;entryX=0;entryY=0.5;entryDx=0;entryDy=0;" edge="1" parent="1" source="bTMqGRWjyUOHQe0r8UtV-5" target="bTMqGRWjyUOHQe0r8UtV-21">
          <mxGeometry relative="1" as="geometry" />
        </mxCell>
        <mxCell id="bTMqGRWjyUOHQe0r8UtV-5" value="AFILDB_CLA01" style="rounded=0;whiteSpace=wrap;html=1;" vertex="1" parent="1">
          <mxGeometry x="170" y="150" width="120" height="30" as="geometry" />
        </mxCell>
        <mxCell id="bTMqGRWjyUOHQe0r8UtV-26" style="edgeStyle=orthogonalEdgeStyle;rounded=0;orthogonalLoop=1;jettySize=auto;html=1;entryX=0;entryY=0.5;entryDx=0;entryDy=0;" edge="1" parent="1" source="bTMqGRWjyUOHQe0r8UtV-6" target="bTMqGRWjyUOHQe0r8UtV-22">
          <mxGeometry relative="1" as="geometry" />
        </mxCell>
        <mxCell id="bTMqGRWjyUOHQe0r8UtV-6" value="AFILDB_VIM00" style="rounded=0;whiteSpace=wrap;html=1;" vertex="1" parent="1">
          <mxGeometry x="170" y="200" width="120" height="30" as="geometry" />
        </mxCell>
        <mxCell id="bTMqGRWjyUOHQe0r8UtV-8" value="" style="shape=image;verticalLabelPosition=bottom;labelBackgroundColor=default;verticalAlign=top;aspect=fixed;imageAspect=0;image=https://cdn.shortpixel.ai/spai2/q_glossy+ret_img+to_auto/www.alteryx.com/wp-content/themes/trifacta/assets/favicon/favicon-32x32.png;" vertex="1" parent="1">
          <mxGeometry x="270" y="570" width="32" height="32" as="geometry" />
        </mxCell>
        <mxCell id="bTMqGRWjyUOHQe0r8UtV-10" value="Central_Preaprobados V1.0.yxmd" style="rounded=1;whiteSpace=wrap;html=1;" vertex="1" parent="1">
          <mxGeometry x="330" y="640" width="210" height="30" as="geometry" />
        </mxCell>
        <mxCell id="bTMqGRWjyUOHQe0r8UtV-11" value="Validar_Preaprobados.yxmd" style="rounded=1;whiteSpace=wrap;html=1;" vertex="1" parent="1">
          <mxGeometry x="330" y="680" width="210" height="30" as="geometry" />
        </mxCell>
        <mxCell id="bTMqGRWjyUOHQe0r8UtV-12" value="Eliminar_Preaprobados.yxmd" style="rounded=1;whiteSpace=wrap;html=1;" vertex="1" parent="1">
          <mxGeometry x="330" y="725" width="210" height="30" as="geometry" />
        </mxCell>
        <mxCell id="bTMqGRWjyUOHQe0r8UtV-13" value="Actualización de Datos de Contacto" style="rounded=1;whiteSpace=wrap;html=1;" vertex="1" parent="1">
          <mxGeometry x="330" y="780" width="210" height="30" as="geometry" />
        </mxCell>
        <mxCell id="bTMqGRWjyUOHQe0r8UtV-14" value="Subsidio Monetario" style="rounded=1;whiteSpace=wrap;html=1;" vertex="1" parent="1">
          <mxGeometry x="330" y="830" width="210" height="30" as="geometry" />
        </mxCell>
        <mxCell id="bTMqGRWjyUOHQe0r8UtV-15" value="Documentos Pendientes de Afiliación&amp;nbsp;" style="rounded=1;whiteSpace=wrap;html=1;" vertex="1" parent="1">
          <mxGeometry x="330" y="870" width="210" height="30" as="geometry" />
        </mxCell>
        <mxCell id="bTMqGRWjyUOHQe0r8UtV-18" value="" style="shape=cylinder3;whiteSpace=wrap;html=1;boundedLbl=1;backgroundOutline=1;size=15;verticalAlign=bottom;" vertex="1" parent="1">
          <mxGeometry x="870" y="110" width="60" height="80" as="geometry" />
        </mxCell>
        <mxCell id="bTMqGRWjyUOHQe0r8UtV-19" value="Com_notificaciones" style="text;html=1;align=center;verticalAlign=middle;whiteSpace=wrap;rounded=0;" vertex="1" parent="1">
          <mxGeometry x="870" y="200" width="60" height="30" as="geometry" />
        </mxCell>
        <mxCell id="bTMqGRWjyUOHQe0r8UtV-20" value="Notif_Cliente" style="rounded=0;whiteSpace=wrap;html=1;" vertex="1" parent="1">
          <mxGeometry x="630" y="110" width="120" height="30" as="geometry" />
        </mxCell>
        <mxCell id="bTMqGRWjyUOHQe0r8UtV-21" value="Notif_Requisitos" style="rounded=0;whiteSpace=wrap;html=1;" vertex="1" parent="1">
          <mxGeometry x="630" y="150" width="120" height="30" as="geometry" />
        </mxCell>
        <mxCell id="bTMqGRWjyUOHQe0r8UtV-22" value="Notif_Vinculacion" style="rounded=0;whiteSpace=wrap;html=1;" vertex="1" parent="1">
          <mxGeometry x="630" y="200" width="120" height="30" as="geometry" />
        </mxCell>
        <mxCell id="bTMqGRWjyUOHQe0r8UtV-29" style="edgeStyle=orthogonalEdgeStyle;rounded=0;orthogonalLoop=1;jettySize=auto;html=1;" edge="1" parent="1" source="bTMqGRWjyUOHQe0r8UtV-27" target="bTMqGRWjyUOHQe0r8UtV-17">
          <mxGeometry relative="1" as="geometry" />
        </mxCell>
        <mxCell id="bTMqGRWjyUOHQe0r8UtV-27" value="&lt;span style=&quot;font-size:11.0pt;font-family:&lt;br/&gt;&amp;quot;Arial&amp;quot;,sans-serif;mso-fareast-font-family:Arial;mso-ansi-language:ES;&lt;br/&gt;mso-fareast-language:ES;mso-bidi-language:ES&quot; lang=&quot;ES&quot;&gt;GeneracionData.yxmd&lt;/span&gt;" style="rounded=1;whiteSpace=wrap;html=1;" vertex="1" parent="1">
          <mxGeometry x="330" y="590" width="210" height="40" as="geometry" />
        </mxCell>
        <mxCell id="bTMqGRWjyUOHQe0r8UtV-28" style="edgeStyle=orthogonalEdgeStyle;rounded=0;orthogonalLoop=1;jettySize=auto;html=1;entryX=0.564;entryY=0.991;entryDx=0;entryDy=0;entryPerimeter=0;" edge="1" parent="1" source="bTMqGRWjyUOHQe0r8UtV-27" target="bTMqGRWjyUOHQe0r8UtV-7">
          <mxGeometry relative="1" as="geometry" />
        </mxCell>
        <mxCell id="bTMqGRWjyUOHQe0r8UtV-30" value="Notif_Proceso" style="rounded=0;whiteSpace=wrap;html=1;" vertex="1" parent="1">
          <mxGeometry x="610" y="-60" width="180" height="30" as="geometry" />
        </mxCell>
        <mxCell id="bTMqGRWjyUOHQe0r8UtV-31" value="Notif_Proceso_Prog_Vinculacion" style="rounded=0;whiteSpace=wrap;html=1;" vertex="1" parent="1">
          <mxGeometry x="610" y="-105" width="180" height="30" as="geometry" />
        </mxCell>
        <mxCell id="bTMqGRWjyUOHQe0r8UtV-33" value="&lt;b&gt;Sistema Alertas - VMPDELFOS&lt;/b&gt;" style="rounded=1;whiteSpace=wrap;html=1;verticalAlign=top;" vertex="1" parent="1">
          <mxGeometry x="10" y="-190" width="340" height="200" as="geometry" />
        </mxCell>
        <mxCell id="bTMqGRWjyUOHQe0r8UtV-43" style="edgeStyle=orthogonalEdgeStyle;rounded=0;orthogonalLoop=1;jettySize=auto;html=1;entryX=0;entryY=0.5;entryDx=0;entryDy=0;" edge="1" parent="1" source="bTMqGRWjyUOHQe0r8UtV-34" target="bTMqGRWjyUOHQe0r8UtV-37">
          <mxGeometry relative="1" as="geometry" />
        </mxCell>
        <mxCell id="bTMqGRWjyUOHQe0r8UtV-34" value="Front" style="rounded=1;whiteSpace=wrap;html=1;" vertex="1" parent="1">
          <mxGeometry x="40" y="-120" width="120" height="60" as="geometry" />
        </mxCell>
        <mxCell id="bTMqGRWjyUOHQe0r8UtV-40" style="edgeStyle=orthogonalEdgeStyle;rounded=0;orthogonalLoop=1;jettySize=auto;html=1;entryX=0.5;entryY=1;entryDx=0;entryDy=0;" edge="1" parent="1" source="bTMqGRWjyUOHQe0r8UtV-37" target="bTMqGRWjyUOHQe0r8UtV-39">
          <mxGeometry relative="1" as="geometry">
            <Array as="points">
              <mxPoint x="260" y="-30" />
              <mxPoint x="-190" y="-30" />
            </Array>
          </mxGeometry>
        </mxCell>
        <mxCell id="bTMqGRWjyUOHQe0r8UtV-41" style="edgeStyle=orthogonalEdgeStyle;rounded=0;orthogonalLoop=1;jettySize=auto;html=1;entryX=0;entryY=0.5;entryDx=0;entryDy=0;" edge="1" parent="1" source="bTMqGRWjyUOHQe0r8UtV-37" target="bTMqGRWjyUOHQe0r8UtV-31">
          <mxGeometry relative="1" as="geometry" />
        </mxCell>
        <mxCell id="bTMqGRWjyUOHQe0r8UtV-42" style="edgeStyle=orthogonalEdgeStyle;rounded=0;orthogonalLoop=1;jettySize=auto;html=1;" edge="1" parent="1" source="bTMqGRWjyUOHQe0r8UtV-37" target="bTMqGRWjyUOHQe0r8UtV-30">
          <mxGeometry relative="1" as="geometry">
            <Array as="points">
              <mxPoint x="465" y="-70" />
              <mxPoint x="465" y="-45" />
            </Array>
          </mxGeometry>
        </mxCell>
        <mxCell id="bTMqGRWjyUOHQe0r8UtV-37" value="Back" style="rounded=1;whiteSpace=wrap;html=1;" vertex="1" parent="1">
          <mxGeometry x="200" y="-120" width="120" height="60" as="geometry" />
        </mxCell>
        <mxCell id="bTMqGRWjyUOHQe0r8UtV-39" value="IDM" style="rounded=1;whiteSpace=wrap;html=1;" vertex="1" parent="1">
          <mxGeometry x="-250" y="-130" width="120" height="60" as="geometry" />
        </mxCell>
        <mxCell id="bTMqGRWjyUOHQe0r8UtV-44" value="Notif_Notificacion" style="rounded=0;whiteSpace=wrap;html=1;" vertex="1" parent="1">
          <mxGeometry x="610" y="-10" width="180" height="30" as="geometry" />
        </mxCell>
        <mxCell id="bTMqGRWjyUOHQe0r8UtV-47" style="edgeStyle=orthogonalEdgeStyle;rounded=0;orthogonalLoop=1;jettySize=auto;html=1;" edge="1" parent="1" source="bTMqGRWjyUOHQe0r8UtV-45" target="bTMqGRWjyUOHQe0r8UtV-44">
          <mxGeometry relative="1" as="geometry" />
        </mxCell>
        <mxCell id="bTMqGRWjyUOHQe0r8UtV-45" value="sp_AlertasGenerico" style="rounded=0;whiteSpace=wrap;html=1;fillColor=#fff2cc;strokeColor=#d6b656;dashed=1;strokeWidth=2;" vertex="1" parent="1">
          <mxGeometry x="890" y="-10" width="180" height="30" as="geometry" />
        </mxCell>
        <mxCell id="bTMqGRWjyUOHQe0r8UtV-46" value="&lt;a href=&quot;file://Apusfs/ptd$/CIE/Proyectos%20SSA%20BI-BA/PRY%20SSA%20PVE/0.1&quot;&gt;\\Apusfs\ptd$\CIE\Proyectos&lt;br/&gt;SSA BI-BA\PRY SSA PVE\0.1&lt;/a&gt;&amp;nbsp;&lt;br/&gt;Flujos\Sistema Alertas\" style="text;html=1;align=center;verticalAlign=middle;resizable=0;points=[];autosize=1;strokeColor=none;fillColor=none;" vertex="1" parent="1">
          <mxGeometry x="330" y="920" width="190" height="60" as="geometry" />
        </mxCell>
        <mxCell id="bTMqGRWjyUOHQe0r8UtV-48" value="Interoperabilidad" style="rounded=1;whiteSpace=wrap;html=1;fontStyle=1;verticalAlign=top;" vertex="1" parent="1">
          <mxGeometry x="1330" y="-130" width="430" height="280" as="geometry" />
        </mxCell>
        <mxCell id="bTMqGRWjyUOHQe0r8UtV-53" style="edgeStyle=orthogonalEdgeStyle;rounded=0;orthogonalLoop=1;jettySize=auto;html=1;entryX=1;entryY=0.5;entryDx=0;entryDy=0;" edge="1" parent="1" source="bTMqGRWjyUOHQe0r8UtV-52" target="bTMqGRWjyUOHQe0r8UtV-45">
          <mxGeometry relative="1" as="geometry" />
        </mxCell>
        <mxCell id="bTMqGRWjyUOHQe0r8UtV-52" value="&lt;span style=&quot;color: rgb(33, 33, 33); font-family: Inter, system-ui, -apple-system, BlinkMacSystemFont, &amp;quot;Segoe UI&amp;quot;, Roboto, Oxygen, Ubuntu, Cantarell, &amp;quot;Fira Sans&amp;quot;, &amp;quot;Droid Sans&amp;quot;, Helvetica, Arial, sans-serif; text-align: left; white-space-collapse: preserve; background-color: rgb(255, 255, 255);&quot;&gt;ConsultarNotificaciones&lt;/span&gt;" style="rounded=1;whiteSpace=wrap;html=1;" vertex="1" parent="1">
          <mxGeometry x="1465" y="-30" width="160" height="60" as="geometry" />
        </mxCell>
      </root>
    </mxGraphModel>
  </diagram>
</mxfile>
